<svg xmlns="http://www.w3.org/2000/svg" viewBox="0 0 200 200" width="200" height="200">
  <rect x="0" y="0" width="200" height="200" rx="44" fill="#0C447C"/>

  <line x1="52" y1="70" x2="80" y2="130" stroke="#FFFFFF" stroke-width="4" stroke-linecap="round"/>
  <line x1="80" y1="130" x2="100" y2="90" stroke="#FFFFFF" stroke-width="4" stroke-linecap="round"/>
  <line x1="100" y1="90" x2="120" y2="130" stroke="#FFFFFF" stroke-width="4" stroke-linecap="round"/>
  <line x1="120" y1="130" x2="148" y2="70" stroke="#FFFFFF" stroke-width="4" stroke-linecap="round"/>

  <line x1="52" y1="70" x2="100" y2="46" stroke="#FFFFFF" stroke-width="2.5" stroke-linecap="round" opacity="0.55"/>
  <line x1="148" y1="70" x2="100" y2="46" stroke="#FFFFFF" stroke-width="2.5" stroke-linecap="round" opacity="0.55"/>
  <line x1="52" y1="70" x2="30" y2="100" stroke="#FFFFFF" stroke-width="2.5" stroke-linecap="round" opacity="0.55"/>
  <line x1="148" y1="70" x2="170" y2="100" stroke="#FFFFFF" stroke-width="2.5" stroke-linecap="round" opacity="0.55"/>

  <circle cx="30" cy="100" r="6" fill="#378ADD"/>
  <circle cx="170" cy="100" r="6" fill="#378ADD"/>
  <circle cx="100" cy="46" r="6" fill="#378ADD"/>
  <circle cx="52" cy="70" r="8" fill="#FFFFFF"/>
  <circle cx="148" cy="70" r="8" fill="#FFFFFF"/>
  <circle cx="80" cy="130" r="8" fill="#FFFFFF"/>
  <circle cx="120" cy="130" r="8" fill="#FFFFFF"/>
  <circle cx="100" cy="90" r="8" fill="#BA7517"/>
</svg>
